<svg width="726" height="726" viewBox="0 0 726 726" fill="none" xmlns="http://www.w3.org/2000/svg">
<rect width="726" height="726" rx="164" fill="#FFDD00"/>
<path d="M395.497 360L416.997 312.5L445.997 318.5L462.497 352.5L486.497 360L481.997 396L435.997 463.5L408.997 523L349.997 520.5V476.5L392.497 453L375.997 415.5L349.997 406.5L345.997 360H395.497Z" fill="#9569CB"/>
<path d="M217.496 266.501L291.996 207.5L340.996 199L343.497 235L302.997 262L315.497 299.501L343.497 306.501L349.996 362.5L297.497 361L280.497 390.5L248.997 397.5L230.497 359.5L201.997 351.5L217.496 266.501Z" fill="#9569CB"/>
<path d="M403.179 163.926C406.187 162.897 409.345 162.373 412.525 162.376C415.331 162.376 418.053 162.777 420.617 163.52C424.032 164.522 427.464 162.059 427.464 158.501V122.614C427.464 117.618 431.698 113.705 436.685 114.017C511.894 118.725 572.098 181.554 571.995 258.264C571.995 260.996 571.918 263.709 571.768 266.403C571.502 271.172 567.603 274.923 562.827 274.923H543.887C540.397 274.923 537.816 271.574 538.818 268.234C539.959 264.383 540.292 260.337 539.795 256.351C538.192 243.249 527.553 232.761 514.426 231.333C497.065 229.437 482.368 242.999 482.368 259.975C482.368 262.789 482.769 265.503 483.512 268.075C484.514 271.49 482.051 274.922 478.493 274.922H439.305C432.765 274.922 427.463 269.62 427.463 263.08V223.876C427.463 220.354 424.08 217.834 420.702 218.829C416.866 219.954 412.841 220.279 408.875 219.785C395.765 218.173 385.276 207.518 383.865 194.383C383.741 193.233 383.684 192.076 383.695 190.918M410.378 524.619H280.8V586.833C280.8 600.18 291.62 611 304.967 611H386.21C399.557 611 410.377 600.18 410.377 586.833V524.619H410.378ZM301.991 276.63C303.402 289.765 313.89 300.421 327.001 302.032C331.141 302.538 335.141 302.162 338.828 301.076C342.206 300.081 345.589 302.602 345.589 306.123V357.17H294.542C291.051 357.17 288.48 360.51 289.473 363.859C290.584 367.567 290.959 371.592 290.45 375.75C288.847 388.852 278.192 399.332 265.073 400.751C247.721 402.621 233.04 389.085 233.04 372.109C233.04 369.303 233.441 366.581 234.192 364.017C235.186 360.602 232.722 357.17 229.165 357.17H202.011C201.351 351.45 201.026 345.621 201.059 339.717C201.468 263.854 261.392 201.284 335.999 196.3C341.182 195.954 345.59 200.038 345.59 205.232V240.747C345.59 244.305 342.158 246.768 338.743 245.766C336.113 245.006 333.389 244.621 330.651 244.622C313.682 244.622 300.129 259.294 301.991 276.63Z" stroke="#9569CB" stroke-width="15" stroke-miterlimit="10" stroke-linecap="round" stroke-linejoin="round"/>
<path d="M478.749 357.171C484.347 357.171 488.602 362.26 487.553 367.759C482.52 394.132 470.31 417.959 453.043 437.136C432.058 460.442 417.261 488.633 411.374 519.43L410.38 524.624H345.588V473.577C345.588 470.087 348.928 467.506 352.277 468.508C356.131 469.649 360.179 469.982 364.168 469.485C377.27 467.873 387.75 457.227 389.169 444.099C391.04 426.755 377.503 412.067 360.527 412.067C357.718 412.067 354.992 412.469 352.426 413.222C349.015 414.223 345.588 411.747 345.588 408.192V357.171H396.618C400.139 357.171 402.66 353.789 401.666 350.411C400.542 346.58 400.216 342.56 400.71 338.599C402.313 325.497 412.952 315.009 426.079 313.581C443.44 311.685 458.137 325.247 458.137 342.223C458.137 345.037 457.736 347.751 456.985 350.323C455.991 353.738 458.455 357.17 462.012 357.17L478.749 357.171Z" stroke="#9569CB" stroke-width="15" stroke-miterlimit="10" stroke-linecap="round" stroke-linejoin="round"/>
<path d="M239.63 438.771C219.246 416.818 205.61 388.518 202.011 357.17H229.167C232.657 357.17 235.238 360.51 234.236 363.859C233.095 367.711 232.762 371.756 233.259 375.742C234.862 388.844 245.509 399.315 258.628 400.743C275.997 402.639 290.677 389.094 290.677 372.109C290.68 369.371 290.292 366.646 289.525 364.017C288.523 360.602 290.986 357.17 294.552 357.17H345.59V408.191C345.59 411.757 349.022 414.22 352.437 413.218C355.066 412.451 357.791 412.063 360.529 412.066C377.506 412.066 391.042 426.754 389.171 444.098C387.751 457.225 377.272 467.872 364.17 469.484C360.181 469.981 356.133 469.648 352.279 468.507C348.93 467.505 345.59 470.085 345.59 473.576V524.623H280.797L279.862 519.696C276.4 501.608 270.127 484.188 261.151 468.289M334.437 552.81H410.378V582.81H280.8V552.81H299.899M525.325 406.857L551.407 408.268M502.695 465.49L522.434 481.534M456.642 524.873L449.924 499.625M264.337 176.262L260.253 150.463M208.338 204.795L190.351 186.808M154 256.704L179.805 260.793" stroke="#9569CB" stroke-width="15" stroke-miterlimit="10" stroke-linecap="round" stroke-linejoin="round"/>
<mask id="mask0_438_173" style="mask-type:alpha" maskUnits="userSpaceOnUse" x="146" y="142" width="413" height="449">
<path d="M239.63 438.771C219.246 416.818 205.61 388.518 202.011 357.17H229.167C232.657 357.17 235.238 360.51 234.236 363.859C233.095 367.711 232.762 371.756 233.259 375.742C234.862 388.844 245.509 399.315 258.628 400.743C275.997 402.639 290.677 389.094 290.677 372.109C290.68 369.371 290.292 366.646 289.525 364.017C288.523 360.602 290.986 357.17 294.552 357.17H345.59V408.191C345.59 411.757 349.022 414.22 352.437 413.218C355.066 412.451 357.791 412.063 360.529 412.066C377.506 412.066 391.042 426.754 389.171 444.098C387.751 457.225 377.272 467.872 364.17 469.484C360.181 469.981 356.133 469.648 352.279 468.507C348.93 467.505 345.59 470.085 345.59 473.576V524.623H280.797L279.862 519.696C276.4 501.608 270.127 484.188 261.151 468.289M334.437 552.81H410.378V582.81H280.8V552.81H299.899M525.325 406.857L551.407 408.268M502.695 465.49L522.434 481.534M456.642 524.873L449.924 499.625M264.337 176.262L260.253 150.463M208.338 204.795L190.351 186.808M154 256.704L179.805 260.793" stroke="#9569CB" stroke-width="15" stroke-miterlimit="10" stroke-linecap="round" stroke-linejoin="round"/>
</mask>
<g mask="url(#mask0_438_173)">
<rect x="126.997" y="236.5" width="74" height="38" fill="#9569CB"/>
<rect x="180.997" y="176.5" width="37" height="37" fill="#9569CB"/>
<rect x="229.997" y="134.5" width="54" height="54" fill="#9569CB"/>
</g>
</svg>
