<svg width="50" height="50" viewBox="0 0 50 50" fill="none" xmlns="http://www.w3.org/2000/svg">
<rect width="50" height="50" rx="12" fill="#FFDD00"/>
<path d="M26.8185 18.7078L28.0427 16L29.694 16.342L30.6335 18.2803L32 18.7078L31.7438 20.7601L29.1246 24.6081L27.5872 28L24.2278 27.8575V25.3492L26.6477 24.0095L25.7082 21.8717L24.2278 21.3587L24 18.7078H26.8185Z" fill="#9569CB"/>
<path d="M16.8901 13.4106L21.1689 9.99242L23.9831 9.5L24.1267 11.5856L21.8007 13.1499L22.5186 15.3225L24.1267 15.728L24.5 18.9723L21.4848 18.8854L20.5085 20.5945L18.6993 21L17.6368 18.7985L16 18.335L16.8901 13.4106Z" fill="#9569CB"/>
<path d="M31.4954 18.4865C31.8106 18.4865 32.0501 18.7757 31.991 19.0881C31.7077 20.5864 31.0204 21.9401 30.0485 23.0296C28.8673 24.3536 28.0344 25.9553 27.703 27.7049L27.6471 28H24V25.0999C24 24.9016 24.188 24.755 24.3765 24.8119C24.5935 24.8767 24.8213 24.8956 25.0458 24.8674C25.7833 24.7758 26.3732 24.171 26.4531 23.4252C26.5584 22.4398 25.7965 21.6053 24.8409 21.6053C24.6828 21.6053 24.5293 21.6282 24.3849 21.6709C24.1929 21.7278 24 21.5872 24 21.3852V18.4865H26.8724C27.0706 18.4865 27.2125 18.2944 27.1566 18.1025C27.0933 17.8848 27.0749 17.6564 27.1027 17.4314C27.193 16.6871 27.7918 16.0912 28.5307 16.0101C29.508 15.9024 30.3352 16.6729 30.3352 17.6373C30.3352 17.7972 30.3127 17.9514 30.2704 18.0975C30.2144 18.2915 30.3531 18.4865 30.5533 18.4865L31.4954 18.4865Z" stroke="#9569CB" stroke-miterlimit="10" stroke-linecap="round" stroke-linejoin="round"/>
<path d="M18.2404 23.0042C17.1119 21.7856 16.3571 20.2147 16.1578 18.4745H17.6612C17.8544 18.4745 17.9972 18.6599 17.9418 18.8458C17.8786 19.0596 17.8602 19.2842 17.8877 19.5054C17.9764 20.2328 18.5658 20.814 19.2921 20.8933C20.2536 20.9985 21.0663 20.2466 21.0663 19.3038C21.0664 19.1518 21.045 19.0005 21.0025 18.8546C20.947 18.665 21.0834 18.4745 21.2808 18.4745H24.1062V21.3067C24.1062 21.5047 24.2962 21.6414 24.4852 21.5858C24.6308 21.5432 24.7816 21.5217 24.9332 21.5218C25.873 21.5218 26.6224 22.3372 26.5188 23.3C26.4402 24.0286 25.8601 24.6197 25.1348 24.7092C24.9139 24.7367 24.6899 24.7183 24.4765 24.6549C24.2911 24.5993 24.1062 24.7425 24.1062 24.9363V27.77H20.5193L20.4676 27.4965C20.2759 26.4924 19.9287 25.5254 19.4318 24.6428M23.4888 29.3347H27.6928V31H20.5195V29.3347H21.5768M34.0561 21.2327L35.5 21.311M32.8034 24.4874L33.8961 25.3781M30.2539 27.7839L29.882 26.3823M19.6081 8.43213L19.382 7M16.5081 10.016L15.5123 9.01755M13.5 12.8975L14.9285 13.1245" stroke="#9569CB" stroke-miterlimit="10" stroke-linecap="round" stroke-linejoin="round"/>
<path d="M27.2905 7.77383C27.4583 7.71647 27.6344 7.68728 27.8118 7.68744C27.9683 7.68744 28.1201 7.70979 28.2631 7.7512C28.4536 7.80705 28.645 7.66978 28.645 7.47147V5.47133C28.645 5.19288 28.8811 4.97479 29.1593 4.99218C33.3539 5.25458 36.7117 8.75632 36.7059 13.0317C36.7059 13.184 36.7016 13.3352 36.6933 13.4853C36.6784 13.7511 36.461 13.9602 36.1946 13.9602H35.1383C34.9436 13.9602 34.7997 13.7735 34.8555 13.5874C34.9192 13.3727 34.9378 13.1472 34.91 12.9251C34.8206 12.1948 34.2273 11.6103 33.4951 11.5307C32.5269 11.425 31.7072 12.1809 31.7072 13.127C31.7072 13.2839 31.7295 13.4351 31.771 13.5785C31.8268 13.7688 31.6895 13.9601 31.491 13.9601H29.3054C28.9406 13.9601 28.6449 13.6646 28.6449 13.3001V11.1151C28.6449 10.9188 28.4563 10.7783 28.2679 10.8338C28.0539 10.8965 27.8294 10.9146 27.6082 10.8871C26.877 10.7972 26.292 10.2034 26.2133 9.47134C26.2064 9.4072 26.2033 9.34272 26.2039 9.27822M27.6921 27.8768H20.4651V31.3443C20.4651 32.0882 21.0686 32.6912 21.813 32.6912H26.3441C27.0885 32.6912 27.692 32.0882 27.692 31.3443L27.6921 27.8768ZM21.647 14.0553C21.7257 14.7874 22.3106 15.3813 23.0419 15.4711C23.2728 15.4993 23.4959 15.4783 23.7015 15.4178C23.8899 15.3623 24.0786 15.5028 24.0786 15.6991V18.5442H21.2315C21.0368 18.5442 20.8934 18.7303 20.9488 18.917C21.0108 19.1236 21.0317 19.348 21.0033 19.5797C20.9139 20.3099 20.3196 20.894 19.588 20.9731C18.6202 21.0773 17.8014 20.3229 17.8014 19.3768C17.8014 19.2204 17.8238 19.0687 17.8656 18.9258C17.9211 18.7354 17.7837 18.5442 17.5853 18.5442H16.0708C16.034 18.2254 16.0159 17.9005 16.0177 17.5714C16.0405 13.3432 19.3827 9.85596 23.5437 9.57818C23.8328 9.5589 24.0786 9.78651 24.0786 10.076V12.0554C24.0786 12.2537 23.8872 12.391 23.6968 12.3351C23.5501 12.2928 23.3982 12.2713 23.2454 12.2714C22.299 12.2714 21.5431 13.0891 21.647 14.0553Z" stroke="#9569CB" stroke-miterlimit="10" stroke-linecap="round" stroke-linejoin="round"/>
<path d="M15.635 34.9995H16.4231V39.7815H15.635V37.1927H12.781V39.7815H12V34.9995H12.781V36.4952H15.635V34.9995ZM19.5131 34.8989C21.0395 34.8989 22.2677 36.0134 22.2677 37.3869C22.2677 38.7675 21.0395 39.8821 19.5131 39.8821C17.9938 39.8821 16.7656 38.7675 16.7656 37.3869C16.7656 36.0134 17.9938 34.8989 19.5131 34.8989ZM19.5131 39.1846C20.5993 39.1846 21.4797 38.3792 21.4797 37.3869C21.4797 36.4018 20.5993 35.5964 19.5131 35.5964C18.4269 35.5964 17.5465 36.4018 17.5465 37.3869C17.5465 38.3792 18.4269 39.1846 19.5131 39.1846ZM26.0369 36.7469C26.5339 37.0561 26.8605 37.6242 26.8321 38.2642C26.7966 39.1343 26.1008 39.839 25.2418 39.8749C24.2833 39.9253 23.4882 39.1487 23.4882 38.1851H24.2762C24.2762 38.7388 24.6738 39.1846 25.1637 39.1846C25.6464 39.1846 26.044 38.7388 26.044 38.1851C26.044 37.6386 25.6464 37.1927 25.1637 37.1927H23.3888V39.7815H22.6078V34.9995H24.7661C25.476 34.9995 26.044 35.4885 26.044 36.0925C26.044 36.222 26.0227 36.3442 25.973 36.4593C25.9375 36.5456 25.8665 36.6031 25.7742 36.6175L25.6464 36.6391L25.6606 36.7469L25.8594 36.711C25.9233 36.7038 25.9872 36.711 26.0369 36.7469ZM24.7661 36.4952C25.0359 36.4952 25.256 36.3155 25.256 36.0925C25.256 35.8768 25.0359 35.697 24.7661 35.697H23.3888V36.4952H24.7661ZM32.5449 39.7815H31.764V34.9995H32.5449V39.7815ZM29.698 36.4952C30.6209 36.4952 31.3664 37.2503 31.3664 38.1851C31.3664 39.1199 30.6209 39.8821 29.698 39.8821C28.775 39.8821 28.0225 39.1199 28.0225 38.1851H28.8105C28.8105 38.7388 29.2081 39.1846 29.698 39.1846C30.1808 39.1846 30.5783 38.7388 30.5783 38.1851C30.5783 37.6386 30.1808 37.1927 29.698 37.1927H27.9231V39.7815H27.1421V34.9995H27.9231V36.4952H29.698ZM36.0233 34.604H34.5466V34H36.0233V34.604ZM36.7119 34.9995H37.5V39.7815H36.7119V36.2939C36.7119 36.2076 36.7261 36.1213 36.7545 36.0422L36.861 35.7114L36.7616 35.6827L36.6551 35.9991C36.6267 36.0854 36.5842 36.1645 36.5345 36.2292L33.8579 39.7815H33.0769V34.9995H33.8579V38.4871C33.8579 38.5734 33.8437 38.6597 33.8224 38.7388L33.7088 39.0696L33.8082 39.0983L33.9147 38.7819C33.9431 38.6956 33.9857 38.6165 34.0354 38.5518L36.7119 34.9995ZM15.635 40.6174H16.4231V45.3993H15.635V42.8106H12.781V45.3993H12V40.6174H12.781V42.1131H15.635V40.6174ZM19.6764 40.6174L21.6288 45.3993H20.7768L20.4077 44.5005H17.8518L17.4826 45.3993H16.6378L18.5831 40.6174H19.6764ZM18.1358 43.803H20.1237L19.2433 41.6385C19.2078 41.545 19.1865 41.4443 19.1865 41.3437L19.1794 41.1136H19.08V41.3221C19.08 41.43 19.0587 41.5306 19.0161 41.6313L18.1358 43.803ZM25.2743 42.3648C25.7712 42.674 26.0978 43.2421 26.0694 43.8821C26.0339 44.7521 25.3382 45.4569 24.4791 45.4928C23.5207 45.5431 22.7255 44.7665 22.7255 43.803H23.5136C23.5136 44.3567 23.9111 44.8025 24.401 44.8025C24.8838 44.8025 25.2814 44.3567 25.2814 43.803C25.2814 43.2564 24.8838 42.8106 24.401 42.8106H22.6261V45.3993H21.8452V40.6174H24.0034C24.7134 40.6174 25.2814 41.1064 25.2814 41.7104C25.2814 41.8398 25.2601 41.9621 25.2104 42.0771C25.1749 42.1634 25.1039 42.221 25.0116 42.2353L24.8838 42.2569L24.898 42.3648L25.0968 42.3288C25.1607 42.3216 25.2246 42.3288 25.2743 42.3648ZM24.0034 42.1131C24.2732 42.1131 24.4933 41.9333 24.4933 41.7104C24.4933 41.4947 24.2732 41.3149 24.0034 41.3149H22.6261V42.1131H24.0034ZM31.7823 45.3993H31.0013V40.6174H31.7823V45.3993ZM28.9353 42.1131C29.8583 42.1131 30.6037 42.8681 30.6037 43.803C30.6037 44.7378 29.8583 45.5 28.9353 45.5C28.0124 45.5 27.2598 44.7378 27.2598 43.803H28.0479C28.0479 44.3567 28.4455 44.8025 28.9353 44.8025C29.4181 44.8025 29.8157 44.3567 29.8157 43.803C29.8157 43.2564 29.4181 42.8106 28.9353 42.8106H27.1604V45.3993H26.3795V40.6174H27.1604V42.1131H28.9353ZM33.8549 42.6524L36.3398 45.3993H35.4097L33.3295 43.1054L33.0953 43.3068V45.3993H32.3143V40.6174H33.0953V42.0628C33.0953 42.1634 33.0811 42.2641 33.0385 42.3576L32.9533 42.5877L33.0456 42.6308L33.0953 42.5158C33.1378 42.3935 33.2159 42.2857 33.3153 42.2066L35.1612 40.6174H36.2262L33.8549 42.6524Z" fill="#9569CB"/>
</svg>
